<svg width="30" height="30" viewBox="0 0 30 30" xmlns="http://www.w3.org/2000/svg">
<path d="M1 5C1 2.79086 2.79086 1 5 1H18.0686C19.1144 1 20.1186 1.40958 20.8661 2.141L27.7975 8.92338C28.5665 9.67587 29 10.7064 29 11.7824V25C29 27.2091 27.2091 29 25 29H5C2.79086 29 1 27.2091 1 25V5Z"/>
<path d="M18 1H7V6C7 7.10457 7.89543 8 9 8H16C17.1046 8 18 7.10457 18 6V1Z"/>
<path d="M14.8002 21.5999C16.7884 21.5999 18.4002 19.9881 18.4002 17.9999C18.4002 16.0117 16.7884 14.3999 14.8002 14.3999C12.812 14.3999 11.2002 16.0117 11.2002 17.9999C11.2002 19.9881 12.812 21.5999 14.8002 21.5999Z"/>
</svg>
