<svg width="29" height="39" viewBox="0 0 29 39" fill="none" xmlns="http://www.w3.org/2000/svg">
<path d="M20.8344 5.04116L20.952 5.375H21.3059H25.375C27.0963 5.375 28.5 6.7834 28.5 8.53125V35.3438C28.5 37.0916 27.0963 38.5 25.375 38.5H3.625C1.90388 38.5 0.5 37.0902 0.5 35.3438V8.53125C0.5 6.7834 1.90374 5.375 3.625 5.375H7.69557H8.04971L8.16724 5.04093C9.09778 2.39588 11.575 0.5 14.5 0.5C17.4249 0.5 19.9023 2.39586 20.8344 5.04116ZM17.4167 7.3125C17.4167 5.69446 16.1146 4.375 14.5 4.375C12.8828 4.375 11.5833 5.69476 11.5833 7.3125C11.5833 8.93314 12.8857 10.25 14.5 10.25C16.1146 10.25 17.4167 8.93054 17.4167 7.3125ZM8.45833 17.5625H20.5417C21.4864 17.5625 22.25 16.7861 22.25 15.8438C22.25 14.9014 21.4864 14.125 20.5417 14.125H8.45833C7.51357 14.125 6.75 14.9014 6.75 15.8438C6.75 16.7861 7.51357 17.5625 8.45833 17.5625Z" fill="#E0E0E4" stroke="#8A8DA1"/>
</svg>
