<svg viewBox="0 0 18 18" xmlns="http://www.w3.org/2000/svg">
<path d="M10.9531 10.5368L12.2128 8.35921C12.2938 8.22423 12.2578 8.05326 12.1409 7.95428L10.8091 6.91048C10.8361 6.71251 10.8541 6.50555 10.8541 6.29859C10.8541 6.09163 10.8361 5.88467 10.8091 5.6777L12.1409 4.6339C12.2578 4.53492 12.2938 4.36395 12.2128 4.22897L10.9531 2.05138C10.8721 1.9164 10.7101 1.86241 10.5661 1.9164L9.00044 2.54628C8.6765 2.29433 8.32556 2.08737 7.93863 1.9254L7.70468 0.260707C7.67768 0.116734 7.54271 -0.000244141 7.38973 -0.000244141H4.8702C4.71723 -0.000244141 4.58225 0.116734 4.55526 0.269706L4.3213 1.9344C3.94337 2.09637 3.58344 2.30333 3.2595 2.55528L1.69379 1.9254C1.54982 1.87141 1.38785 1.9254 1.30686 2.06037L0.0470945 4.23797C-0.0338905 4.37295 0.00210299 4.54391 0.119081 4.6429L1.45083 5.6867C1.42384 5.88466 1.40584 6.09163 1.40584 6.29859C1.40584 6.50555 1.42384 6.71251 1.45083 6.91947L0.119081 7.96328C0.00210299 8.06226 -0.0338905 8.23323 0.0470945 8.36821L1.30686 10.5458C1.38785 10.6808 1.54982 10.7348 1.69379 10.6808L3.2595 10.0509C3.58344 10.3028 3.93437 10.5098 4.3213 10.6718L4.55526 12.3365C4.58225 12.4804 4.71723 12.5974 4.8702 12.5974H7.38973C7.54271 12.5974 7.67768 12.4804 7.70468 12.3275L7.93863 10.6628C8.31656 10.5008 8.6765 10.2938 9.00044 10.0419L10.5661 10.6718C10.7101 10.7258 10.8721 10.6718 10.9531 10.5368ZM6.12997 8.09826C5.14015 8.09826 4.3303 7.2884 4.3303 6.29859C4.3303 5.30877 5.14015 4.49892 6.12997 4.49892C7.11978 4.49892 7.92963 5.30877 7.92963 6.29859C7.92963 7.2884 7.11978 8.09826 6.12997 8.09826Z" />
<path d="M17.9272 15L17.0633 14.3341C17.0813 14.2082 17.0993 14.0732 17.0993 13.9382C17.0993 13.8032 17.0903 13.6682 17.0633 13.5423L17.9182 12.8764C17.9901 12.8134 18.0171 12.7054 17.9631 12.6154L17.1533 11.2207C17.1083 11.1307 17.0003 11.1037 16.9013 11.1307L15.9025 11.5356C15.6956 11.3737 15.4706 11.2387 15.2187 11.1397L15.0657 10.0779C15.0567 9.96994 14.9667 9.89795 14.8767 9.89795H13.266C13.167 9.89795 13.0771 9.96994 13.0681 10.0689L12.9151 11.1307C12.6721 11.2387 12.4382 11.3647 12.2312 11.5266L11.2324 11.1217C11.1424 11.0857 11.0344 11.1217 10.9804 11.2117L10.1706 12.6064C10.1256 12.6964 10.1346 12.8044 10.2156 12.8674L11.0704 13.5333C11.0524 13.6593 11.0434 13.7942 11.0434 13.9292C11.0434 14.0642 11.0524 14.1992 11.0704 14.3251L10.2156 14.991C10.1436 15.054 10.1166 15.162 10.1706 15.252L10.9804 16.6467C11.0254 16.7367 11.1334 16.7637 11.2324 16.7367L12.2312 16.3318C12.4382 16.4937 12.6631 16.6287 12.9151 16.7277L13.0681 17.7895C13.0861 17.8885 13.167 17.9605 13.266 17.9605H14.8767C14.9757 17.9605 15.0657 17.8885 15.0747 17.7895L15.2277 16.7277C15.4706 16.6197 15.7046 16.4937 15.9025 16.3318L16.9103 16.7367C17.0003 16.7727 17.1083 16.7367 17.1623 16.6467L17.9721 15.252C18.0261 15.171 17.9991 15.063 17.9272 15ZM14.0669 15.144C13.401 15.144 12.8521 14.6041 12.8521 13.9292C12.8521 13.2543 13.392 12.7144 14.0669 12.7144C14.7417 12.7144 15.2816 13.2543 15.2816 13.9292C15.2816 14.6041 14.7327 15.144 14.0669 15.144Z"/>
</svg>
