<svg width="864" height="864" viewBox="0 0 864 864" xmlns="http://www.w3.org/2000/svg">
<path d="M320.4 384C320.4 366.3 334.7 352 352.4 352C370 352 384.4 366.3 384.4 384C384.4 401.7 370 416 352.4 416C334.7 416 320.4 401.7 320.4 384ZM544.4 384C544.4 401.7 530 416 512.4 416C494.7 416 480.4 401.7 480.4 384C480.4 366.3 494.7 352 512.4 352C530 352 544.4 366.3 544.4 384ZM504 504C517.3 504 528 514.7 528 528C528 541.3 517.3 552 504 552H360C346.7 552 336 541.3 336 528C336 514.7 346.7 504 360 504H504ZM688 432C688 573.4 573.4 688 432 688C290.6 688 176 573.4 176 432C176 290.6 290.6 176 432 176C573.4 176 688 290.6 688 432ZM432 640C546.9 640 640 546.9 640 432C640 317.1 546.9 224 432 224C317.1 224 224 317.1 224 432C224 546.9 317.1 640 432 640Z"/>
<rect x="25" y="25" width="814" height="814" rx="73" stroke-width="50" stroke-miterlimit="1.35678"/>
</svg>
