<svg viewBox="0 0 19 12" xmlns="http://www.w3.org/2000/svg">
<path d="M13.3864 6.85714C12.35 6.85714 10.735 7.14857 9.5 7.71429C8.265 7.14 6.65 6.85714 5.61364 6.85714C3.73955 6.85714 0 7.78286 0 9.64286V12H19V9.64286C19 7.78286 15.2605 6.85714 13.3864 6.85714ZM9.93182 10.7143H1.29545V9.64286C1.29545 9.18 3.50636 8.14286 5.61364 8.14286C7.72091 8.14286 9.93182 9.18 9.93182 9.64286V10.7143ZM17.7045 10.7143H11.2273V9.64286C11.2273 9.24857 11.0545 8.90571 10.7782 8.59714C11.5382 8.34 12.4709 8.14286 13.3864 8.14286C15.4936 8.14286 17.7045 9.18 17.7045 9.64286V10.7143ZM5.61364 6C7.28045 6 8.63636 4.65429 8.63636 3C8.63636 1.34571 7.28045 0 5.61364 0C3.94682 0 2.59091 1.34571 2.59091 3C2.59091 4.65429 3.94682 6 5.61364 6ZM5.61364 1.28571C6.56364 1.28571 7.34091 2.05714 7.34091 3C7.34091 3.94286 6.56364 4.71429 5.61364 4.71429C4.66364 4.71429 3.88636 3.94286 3.88636 3C3.88636 2.05714 4.66364 1.28571 5.61364 1.28571ZM13.3864 6C15.0532 6 16.4091 4.65429 16.4091 3C16.4091 1.34571 15.0532 0 13.3864 0C11.7195 0 10.3636 1.34571 10.3636 3C10.3636 4.65429 11.7195 6 13.3864 6ZM13.3864 1.28571C14.3364 1.28571 15.1136 2.05714 15.1136 3C15.1136 3.94286 14.3364 4.71429 13.3864 4.71429C12.4364 4.71429 11.6591 3.94286 11.6591 3C11.6591 2.05714 12.4364 1.28571 13.3864 1.28571Z"/>
</svg>
