<svg viewBox="0 0 36 29" xmlns="http://www.w3.org/2000/svg">
<path d="M14.4644 21.1746C19.9628 20.4957 24.3059 16.4974 24.3059 11.4165C24.3059 10.9252 24.2486 10.4874 24.1779 10.0525H24.1787H24.1802H24.1817H24.1832H24.1847H24.1862H24.1878H24.1893H24.1908H24.1923H24.1938H24.1953H24.1968H24.1983H24.1998H24.2013H24.2028H24.2043H24.2058H24.2073H24.2088H24.2103H24.2118H24.2133H24.2148H24.2162H24.2177H24.2192H24.2207H24.2222H24.2237H24.2251H24.2266H24.2281H24.2295H24.231H24.2325H24.234H24.2354H24.2369H24.2383H24.2398H24.2413H24.2427H24.2442H24.2456H24.2471H24.2485H24.25H24.2514H24.2529H24.2543H24.2558H24.2572H24.2586H24.2601H24.2615H24.2629H24.2644H24.2658H24.2672H24.2686H24.2701H24.2715H24.2729H24.2743H24.2757H24.2771H24.2786H24.28H24.2814H24.2828H24.2842H24.2856H24.287H24.2884H24.2898H24.2912H24.2926H24.294H24.2953H24.2967H24.2981H24.2995H24.3009H24.3022H24.3036H24.305H24.3064H24.3077H24.3091H24.3105H24.3118H24.3132H24.3145H24.3159H24.3172H24.3186H24.3199H24.3213H24.3226H24.324H24.3253H24.3266H24.328H24.3293H24.3306H24.332H24.3333H24.3346H24.3359H24.3373H24.3386H24.3399H24.3412H24.3425H24.3438H24.3451H24.3464H24.3477H24.349H24.3503H24.3516H24.3529H24.3542C30.0688 10.0525 34.5995 14.0602 34.5995 18.8724C34.5995 20.8216 33.7752 22.7924 32.5269 24.2486L32.3109 24.5007L32.4594 24.7976L33.6243 27.1276L33.7634 27.4057L29.49 26.6045L29.3406 26.5764L29.2009 26.6363C27.7153 27.273 26.0281 27.6924 24.3542 27.6924C19.6176 27.6924 15.6261 24.9083 14.4644 21.1746Z"/>
<path d="M2.74978 15.3548L2.89914 15.0561L2.68042 14.8037C1.31889 13.2327 0.5 11.3716 0.5 9.31993C0.5 4.50771 5.03074 0.5 10.7453 0.5C15.8218 0.5 19.9648 3.56018 20.8922 7.56131C20.9995 8.09908 21.1003 8.71523 21.1003 9.31993C21.1003 13.9277 16.9896 17.8167 11.6076 18.1399H11.6069H11.6056H11.6043H11.603H11.6016H11.6003H11.599H11.5976H11.5963H11.595H11.5936H11.5923H11.591H11.5896H11.5883H11.5869H11.5856H11.5842H11.5829H11.5815H11.5802H11.5788H11.5774H11.5761H11.5747H11.5733H11.572H11.5706H11.5692H11.5678H11.5664H11.5651H11.5637H11.5623H11.5609H11.5595H11.5581H11.5567H11.5553H11.5539H11.5525H11.5511H11.5497H11.5483H11.5469H11.5455H11.5441H11.5427H11.5412H11.5398H11.5384H11.537H11.5356H11.5341H11.5327H11.5313H11.5298H11.5284H11.527H11.5255H11.5241H11.5227H11.5212H11.5198H11.5183H11.5169H11.5154H11.514H11.5125H11.5111H11.5096H11.5081H11.5067H11.5052H11.5038H11.5023H11.5008H11.4994H11.4979H11.4964H11.4949H11.4935H11.492H11.4905H11.489H11.4876H11.4861H11.4846H11.4831H11.4816H11.4801H11.4786H11.4771H11.4756H11.4741H11.4727H11.4712H11.4697H11.4682H11.4667H11.4651H11.4636H11.4621H11.4606H11.4591H11.4576H11.4561H11.4546H11.4531H11.4516H11.45H11.4485H11.447H11.4455H11.4439H11.4424H11.4409H11.4394H11.4378H11.4363H11.4348H11.4333H11.4317H11.4302H11.4287H11.4271H11.4256H11.424H11.4225H11.421H11.4194H11.4179H11.4163H11.4148H11.4132H11.4117H11.4101H11.4086H11.407H11.4055H11.4039H11.4024H11.4008H11.3993H11.3977H11.3962H11.3946H11.393H11.3915H11.3899H11.3884H11.3868H11.3852H11.3837H11.3821H11.3805H11.379H11.3774H11.3758H11.3743H11.3727H11.3711H11.3695H11.368H11.3664H11.3648H11.3632H11.3617H11.3601H11.3585H11.3569H11.3554H11.3538H11.3522H11.3506H11.349H11.3474H11.3459H11.3443H11.3427H11.3411H11.3395H11.3379H11.3363H11.3348H11.3332H11.3316H11.33H11.3284H11.3268H11.3252H11.3236H11.322H11.3204H11.3188H11.3172H11.3157H11.3141H11.3125H11.3109H11.3093H11.3077H11.3061H11.3045H11.3029H11.3013H11.2997H11.2981H11.2965H11.2949H11.2933H11.2917H11.2901H11.2885H11.2869H11.2853H11.2837H11.2821H11.2805H11.2789H11.2773H11.2757H11.2741H11.2725H11.2709H11.2692H11.2676H11.266H11.2644H11.2628H11.2612H11.2596H11.258H11.2564H11.2548H11.2532H11.2516H11.25H11.2484H11.2468H11.2452H11.2436H11.242H11.2403H11.2387H11.2371H11.2355H11.2339H11.2323H11.2307H11.2291H11.2275H11.2259H11.2243H11.2227H11.2211H11.2195H11.2179H11.2163H11.2147H11.213H11.2114H11.2098H11.2082H11.2066H11.205H11.2034H11.2018H11.2002H11.1986H11.197H11.1954H11.1938H11.1922H11.1906H11.189H11.1874H11.1858H11.1842H11.1826H11.181H11.1794H11.1778H11.1762H11.1746H11.173H11.1714H11.1698H11.1682H11.1666H11.165H11.1634H11.1618H11.1602H11.1586H11.157H11.1555H11.1539H11.1523H11.1507H11.1491H11.1475H11.1459H11.1443H11.1427H11.1411H11.1395H11.138H11.1364H11.1348H11.1332H11.1316H11.13H11.1285H11.1269H11.1253H11.1237H11.1221H11.1205H11.119H11.1174H11.1158H11.1142H11.1127H11.1111H11.1095H11.1079H11.1064H11.1048H11.1032H11.1017H11.1001H11.0985H11.0969H11.0954H11.0938H11.0922H11.0907H11.0891H11.0876H11.086H11.0844H11.0829H11.0813H11.0798H11.0782H11.0766H11.0751H11.0735H11.072H11.0704H11.0689H11.0673H11.0658H11.0642H11.0627H11.0611H11.0596H11.0581H11.0565H11.055H11.0534H11.0519H11.0504H11.0488H11.0473H11.0458H11.0442H11.0427H11.0412H11.0396H11.0381H11.0366H11.0351H11.0335H11.032H11.0305H11.029H11.0274H11.0259H11.0244H11.0229H11.0214H11.0199H11.0184H11.0169H11.0153H11.0138H11.0123H11.0108H11.0093H11.0078H11.0063H11.0048H11.0033H11.0018H11.0003H10.9989H10.9974H10.9959H10.9944H10.9929H10.9914H10.9899H10.9884H10.987H10.9855H10.984H10.9825H10.9811H10.9796H10.9781H10.9767H10.9752H10.9737H10.9723H10.9708H10.9693H10.9679H10.9664H10.965H10.9635H10.9621H10.9606H10.9592H10.9577H10.9563H10.9548H10.9534H10.9519H10.9505H10.9491H10.9476H10.9462H10.9448H10.9434H10.9419H10.9405H10.9391H10.9377H10.9362H10.9348H10.9334H10.932H10.9306H10.9292H10.9278H10.9264H10.925H10.9236H10.9222H10.9208H10.9194H10.918H10.9166H10.9152H10.9138H10.9124H10.911H10.9097H10.9083H10.9069H10.9055H10.9042H10.9028H10.9014H10.9001H10.8987H10.8973H10.896H10.8946H10.8933H10.8919H10.8906H10.8892H10.8879H10.8865H10.8852H10.8838H10.8825H10.8812H10.8798H10.8785H10.8772H10.8759H10.8745H10.8732H10.8719H10.8706H10.8693H10.868H10.8666H10.8653H10.864H10.8627H10.8614H10.8601H10.8588H10.8576H10.8563H10.855C9.07357 18.1399 7.49632 17.7216 6.00821 17.0838L5.86345 17.0218L5.70927 17.0539L1.45731 17.9397L1.58479 17.6848L2.74978 15.3548Z"/>
</svg>
