<svg width="24" height="24" viewBox="0 0 24 24" xmlns="http://www.w3.org/2000/svg">
<path d="M14.7204 13.434H14.0429L13.8027 13.2024C14.6432 12.2247 15.1492 10.9554 15.1492 9.57461C15.1492 6.49571 12.6535 4 9.57461 4C6.49571 4 4 6.49571 4 9.57461C4 12.6535 6.49571 15.1492 9.57461 15.1492C10.9554 15.1492 12.2247 14.6432 13.2024 13.8027L13.434 14.0429V14.7204L17.7221 19L19 17.7221L14.7204 13.434ZM9.57461 13.434C7.43911 13.434 5.71527 11.7101 5.71527 9.57461C5.71527 7.43911 7.43911 5.71527 9.57461 5.71527C11.7101 5.71527 13.434 7.43911 13.434 9.57461C13.434 11.7101 11.7101 13.434 9.57461 13.434Z"/>
</svg>
