<svg width="30" height="33" viewBox="0 0 30 33" xmlns="http://www.w3.org/2000/svg">
<path d="M0.5 11C0.5 9.067 2.067 7.5 4 7.5H26C27.933 7.5 29.5 9.067 29.5 11V21C29.5 22.933 27.933 24.5 26 24.5H4C2.067 24.5 0.5 22.933 0.5 21V11Z"/>
<mask id="path-2-inside-1_57_6138">
<path d="M18 0H12C9.79086 0 8 1.79086 8 4V11H22V4C22 1.79086 20.2091 0 18 0Z"/>
</mask>
<path d="M18 0H12C9.79086 0 8 1.79086 8 4V11H22V4C22 1.79086 20.2091 0 18 0Z"/>
<path d="M22 11V12H23V11H22ZM8 11H7V12H8V11ZM12 1H18V-1H12V1ZM21 4V11H23V4H21ZM22 10H8V12H22V10ZM9 11V4H7V11H9ZM18 1C19.6569 1 21 2.34315 21 4H23C23 1.23858 20.7614 -1 18 -1V1ZM12 -1C9.23858 -1 7 1.23858 7 4H9C9 2.34315 10.3431 1 12 1V-1Z" mask="url(#path-2-inside-1_57_6138)"/>
<mask id="path-4-inside-2_57_6138">
<path d="M23 20H7V29C7 31.2091 8.79086 33 11 33H19C21.2091 33 23 31.2091 23 29V20Z"/>
</mask>
<path d="M23 20H7V29C7 31.2091 8.79086 33 11 33H19C21.2091 33 23 31.2091 23 29V20Z"/>
<path d="M7 20V19H6V20H7ZM23 20H24V19H23V20ZM7 21H23V19H7V21ZM22 20V29H24V20H22ZM19 32H11V34H19V32ZM8 29V20H6V29H8ZM11 32C9.34315 32 8 30.6569 8 29H6C6 31.7614 8.23858 34 11 34V32ZM22 29C22 30.6569 20.6569 32 19 32V34C21.7614 34 24 31.7614 24 29H22Z" mask="url(#path-4-inside-2_57_6138)"/>
<path d="M4.5 20.5H25.5"/>
<path d="M10.5 24.5H19.5"/>
<path d="M10.5 27.5H19.5"/>
<path d="M4.5 15.5H8.5"/>
</svg>
