<svg width="33" height="32" viewBox="0 0 33 32" xmlns="http://www.w3.org/2000/svg">
<path d="M31.3407 18.5962L31.3063 18.778L31.3985 18.9384C32.1179 20.1898 32.4999 21.604 32.4999 23.0412C32.4999 25.2931 31.5974 27.4113 29.9503 29.0071L29.95 29.0073C28.3025 30.6058 26.1126 31.4855 23.7766 31.4855C22.2648 31.4855 20.785 31.1043 19.4787 30.3877L19.3256 30.3038L19.1535 30.3334C18.2848 30.4827 17.3954 30.5612 16.509 30.5612C14.47 30.5612 12.4933 30.1739 10.6337 29.4096L10.6329 29.4092C8.83529 28.6742 7.22375 27.6189 5.83772 26.2758C4.45305 24.9326 3.36728 23.3715 2.61005 21.6324L2.60983 21.6319C1.82381 19.832 1.42601 17.9217 1.42601 15.9499C1.42601 15.1071 1.50424 14.2619 1.6528 13.434L1.68493 13.2549L1.59447 13.0971C0.880131 11.8506 0.5 10.441 0.5 9.00877C0.5 6.75707 1.40343 4.63926 3.05009 3.04227L3.05014 3.04222C4.69748 1.44411 6.88873 0.562744 9.22509 0.562744C10.6545 0.562744 12.0669 0.908561 13.3221 1.55573L13.4762 1.63519L13.6322 1.60495C13.6357 1.60442 13.6395 1.6038 13.6437 1.60308C13.6466 1.60256 13.6499 1.60196 13.6534 1.60128C14.5879 1.42749 15.5491 1.34009 16.5093 1.34009C18.5484 1.34009 20.5247 1.72714 22.3841 2.49015C24.1806 3.22748 25.7944 4.28135 27.178 5.62417L27.1783 5.62444C28.5639 6.96717 29.6493 8.52927 30.4079 10.2683L30.408 10.2685C31.194 12.068 31.5915 13.9786 31.5915 15.9499C31.5915 16.8376 31.5053 17.7267 31.3407 18.5962Z"/>
<path d="M16.5712 25.2036C11.0353 25.2036 8.55859 22.5645 8.55859 20.5864C8.55859 19.572 9.33102 18.8608 10.3955 18.8608C12.7647 18.8608 12.1511 22.1594 16.5712 22.1594C18.8341 22.1594 20.0836 20.968 20.0836 19.7488C20.0836 19.0154 19.7105 18.2026 18.2205 17.8464L13.2967 16.6545C9.33102 15.6902 8.61147 13.6113 8.61147 11.6572C8.61147 7.6001 12.5509 6.07666 16.2504 6.07666C19.6584 6.07666 23.6756 7.90308 23.6756 10.3372C23.6756 11.3801 22.7443 11.9866 21.6801 11.9866C19.6584 11.9866 20.0302 9.27295 15.9576 9.27295C13.9367 9.27295 12.8173 10.1604 12.8173 11.4302C12.8173 12.6978 14.4135 13.1025 15.7992 13.4087L19.4439 14.1931C23.4362 15.0557 24.4483 17.3159 24.4483 19.4448C24.4486 22.7417 21.8387 25.2036 16.5712 25.2036Z"/>
</svg>
