<svg width="42" height="26" viewBox="0 0 42 26" xmlns="http://www.w3.org/2000/svg">
<path d="M9.5 13C9.5 15.4853 7.48528 17.5 5 17.5C2.51472 17.5 0.5 15.4853 0.5 13C0.5 10.5147 2.51472 8.5 5 8.5C7.48528 8.5 9.5 10.5147 9.5 13Z"/>
<path d="M36 13L9 13"/>
<path d="M12.2402 13.5301C12.2402 13.5301 13.2402 8.53007 16.1002 5.70007C17.4767 4.44141 19.2394 3.68695 21.1002 3.56006"/>
<path d="M26.4805 3.5C26.4805 5.15685 25.1373 6.5 23.4805 6.5C21.8236 6.5 20.4805 5.15685 20.4805 3.5C20.4805 1.84315 21.8236 0.5 23.4805 0.5C25.1373 0.5 26.4805 1.84315 26.4805 3.5Z" />
<path d="M26.3105 25.1501V20.3201H31.1405V25.1501H26.3105Z" />
<path d="M17 13.53C17.4767 15.9538 18.6516 18.1853 20.38 19.95C21.859 21.5764 23.8915 22.5926 26.08 22.8"/>
<path d="M41.0077 13.5054L36.5 16.1303V10.8713L41.0077 13.5054Z" />
</svg>
