<svg width="34" height="26" viewBox="0 0 34 26" xmlns="http://www.w3.org/2000/svg">
<mask id="path-1-inside-1_57_6192">
<path fill-rule="evenodd" clip-rule="evenodd" d="M23.8604 14.6248C26.0549 16.1145 27.5926 18.1328 27.5926 20.8238V25.6293H31.9999C33.1045 25.6293 33.9999 24.7339 33.9999 23.6293V20.8238C33.9999 17.3318 28.2814 15.2655 23.8604 14.6248Z"/>
</mask>
<path fill-rule="evenodd" clip-rule="evenodd" d="M23.8604 14.6248C26.0549 16.1145 27.5926 18.1328 27.5926 20.8238V25.6293H31.9999C33.1045 25.6293 33.9999 24.7339 33.9999 23.6293V20.8238C33.9999 17.3318 28.2814 15.2655 23.8604 14.6248Z"/>
<path d="M23.8604 14.6248L24.0038 13.6351L23.2987 15.4521L23.8604 14.6248ZM27.5926 25.6293H26.5926V26.6293H27.5926V25.6293ZM23.2987 15.4521C25.3307 16.8315 26.5926 18.5795 26.5926 20.8238H28.5926C28.5926 17.686 26.779 15.3974 24.422 13.7974L23.2987 15.4521ZM26.5926 20.8238V25.6293H28.5926V20.8238H26.5926ZM27.5926 26.6293H31.9999V24.6293H27.5926V26.6293ZM34.9999 23.6293V20.8238H32.9999V23.6293H34.9999ZM34.9999 20.8238C34.9999 18.4768 33.0937 16.8334 31.0502 15.7683C28.9376 14.6672 26.2852 13.9657 24.0038 13.6351L23.7169 15.6144C25.8565 15.9245 28.2739 16.5766 30.1258 17.5418C32.0469 18.5431 32.9999 19.6789 32.9999 20.8238H34.9999ZM31.9999 26.6293C33.6568 26.6293 34.9999 25.2861 34.9999 23.6293H32.9999C32.9999 24.1816 32.5522 24.6293 31.9999 24.6293V26.6293Z" mask="url(#path-1-inside-1_57_6192)"/>
<path d="M18.7218 6.4073C18.7218 9.66981 16.077 12.3146 12.8145 12.3146C9.55201 12.3146 6.90723 9.66981 6.90723 6.4073C6.90723 3.14479 9.55201 0.5 12.8145 0.5C16.077 0.5 18.7218 3.14479 18.7218 6.4073Z"/>
<path d="M27.0924 6.4073C27.0924 9.67119 24.449 12.3146 21.1851 12.3146C20.7411 12.3146 20.3108 12.2531 19.8873 12.151C21.0182 10.5182 21.6851 8.53623 21.6851 6.4073C21.6851 4.27837 21.0182 2.29635 19.8873 0.663548C20.3108 0.561491 20.7411 0.5 21.1851 0.5C24.449 0.5 27.0924 3.14341 27.0924 6.4073Z" />
<mask id="path-5-inside-2_57_6192">
<path fill-rule="evenodd" clip-rule="evenodd" d="M12.8146 14.4165C8.53773 14.4165 0 16.5629 0 20.8238V23.6293C0 24.7338 0.895431 25.6293 2 25.6293H25.6292V20.8238C25.6292 16.5629 17.0915 14.4165 12.8146 14.4165Z"/>
</mask>
<path fill-rule="evenodd" clip-rule="evenodd" d="M12.8146 14.4165C8.53773 14.4165 0 16.5629 0 20.8238V23.6293C0 24.7338 0.895431 25.6293 2 25.6293H25.6292V20.8238C25.6292 16.5629 17.0915 14.4165 12.8146 14.4165Z"/>
<path d="M25.6292 25.6293V26.6293H26.6292V25.6293H25.6292ZM12.8146 13.4165C10.5512 13.4165 7.22109 13.9766 4.4316 15.094C3.03605 15.6531 1.71291 16.3763 0.722619 17.2903C-0.274465 18.2105 -1 19.3913 -1 20.8238H1C1 20.1259 1.34168 19.4405 2.07907 18.76C2.82326 18.0731 3.90185 17.4608 5.17534 16.9506C7.72393 15.9297 10.8012 15.4165 12.8146 15.4165V13.4165ZM-1 20.8238V23.6293H1V20.8238H-1ZM2 26.6293H25.6292V24.6293H2V26.6293ZM26.6292 25.6293V20.8238H24.6292V25.6293H26.6292ZM26.6292 20.8238C26.6292 19.3913 25.9037 18.2105 24.9066 17.2903C23.9163 16.3763 22.5931 15.6531 21.1976 15.094C18.4081 13.9766 15.078 13.4165 12.8146 13.4165V15.4165C14.828 15.4165 17.9053 15.9297 20.4539 16.9506C21.7273 17.4608 22.8059 18.0731 23.5501 18.76C24.2875 19.4405 24.6292 20.1259 24.6292 20.8238H26.6292ZM-1 23.6293C-1 25.2861 0.343147 26.6293 2 26.6293V24.6293C1.44771 24.6293 1 24.1816 1 23.6293H-1Z" mask="url(#path-5-inside-2_57_6192)"/>
</svg>
