<svg width="31" height="26" viewBox="0 0 31 26" xmlns="http://www.w3.org/2000/svg">
<path d="M20.9586 2.10195C21.2496 3.49887 22.4807 4.5 23.9076 4.5H27C28.933 4.5 30.5 6.067 30.5 8V22C30.5 23.933 28.933 25.5 27 25.5H4C2.067 25.5 0.5 23.933 0.5 22V8C0.5 6.067 2.067 4.5 4 4.5H7.09239C8.51929 4.5 9.75042 3.49887 10.0414 2.10195C10.2357 1.16878 11.0582 0.5 12.0114 0.5H18.9886C19.9418 0.5 20.7643 1.16878 20.9586 2.10195Z"/>
<path d="M15.5 8.5C18.8137 8.5 21.5 11.1863 21.5 14.5C21.5 17.8137 18.8137 20.5 15.5 20.5C12.1863 20.5 9.5 17.8137 9.5 14.5C9.5 11.1863 12.1863 8.5 15.5 8.5Z"/>
<path d="M5.5 7.5C6.60457 7.5 7.5 8.39543 7.5 9.5C7.5 10.6046 6.60457 11.5 5.5 11.5C4.39543 11.5 3.5 10.6046 3.5 9.5C3.5 8.39543 4.39543 7.5 5.5 7.5Z"/>
</svg>
